<svg width="120" height="68" viewBox="0 0 120 68" fill="none"
    xmlns="http://www.w3.org/2000/svg">
    <path d="M13.2609 0C20.7687 0 26.8734 5.19219 27.0141 12.4188C27.0844 14.4531 25.6109 15.5766 23.9969 15.5766C22.4531 15.5766 21.1203 14.4547 21.05 12.5594C20.9797 8.48906 17.5422 5.47187 13.1906 5.47187C9.12031 5.47187 6.03437 8.34844 6.03437 12.2781C6.03437 16.5578 8.91094 18.4531 14.875 20.6281C21.2594 22.9437 27.0844 25.6797 27.0844 33.8188C27.0844 40.9063 21.5406 46.5891 13.8234 46.5891C6.24531 46.5891 0 41.2562 0 34.0297C0 29.5391 2.175 26.3812 4.27969 26.3812C6.10469 26.3812 7.22656 27.5734 7.22656 29.1875C7.22656 30.5906 6.03437 31.2219 6.03437 33.7484C6.03437 38.2391 9.68281 41.1156 13.8234 41.1156C18.1734 41.1156 21.05 38.0984 21.05 34.45C21.05 29.9594 18.1734 28.0656 12.2094 25.9594C5.54375 23.5766 0 20.6984 0 12.7703C0 5.61406 5.75312 0 13.2609 0Z" fill="#00D639"/>
    <path d="M43.8829 46.5906C36.3048 46.5906 29.9907 40.4859 29.9907 32.7672C29.9907 24.7688 36.3751 18.8047 44.0939 18.8047C52.3735 18.8047 58.197 24.9797 58.197 33.4V43.6438C58.197 45.3984 56.7939 46.5906 55.1798 46.5906C53.4954 46.5906 52.0923 45.3984 52.0923 43.6438V33.6094C52.0923 28.0656 48.9345 24.2766 43.9532 24.2766C39.5329 24.2766 36.0251 27.9953 36.0251 32.7672C36.0251 37.1875 39.4626 40.9766 43.8142 40.9766C45.4282 40.9766 46.1298 40.5563 47.1126 40.5563C48.4454 40.5563 49.8485 41.6781 49.8485 43.2922C49.847 45.4672 47.2501 46.5906 43.8829 46.5906Z" fill="#00D639"/>
    <path d="M75.486 67.5C67.6266 67.5 61.1016 61.8859 61.1016 54.5891C61.1016 52.1328 62.5047 51.0109 64.1188 51.0109C65.7328 51.0109 67.0656 52.0641 67.1359 54.0984C67.2063 58.6594 70.8547 62.0266 75.4156 62.0266C80.2578 62.0266 83.4141 58.9391 83.4141 54.9391C83.4141 50.3781 79.9063 48.4844 73.9422 46.5891C66.9953 44.3437 61.1016 41.2563 61.1016 32.6969C61.1016 24.8375 67.1359 18.8047 74.9938 18.8047C82.9219 18.8047 89.4485 24.5578 89.4485 32.1359C89.4485 36.7672 87.5547 40.3453 84.9578 40.3453C83.2032 40.3453 82.011 39.0828 82.011 37.5391C82.011 35.925 83.4141 35.2234 83.4141 32.3469C83.4141 27.5047 79.625 24.2781 75.0641 24.2781C70.6438 24.2781 67.1359 27.6469 67.1359 32.0672C67.1359 37.0484 70.7141 39.1547 76.6078 41.1187C83.4141 43.3641 89.4485 46.1703 89.4485 54.3797C89.4485 61.7469 83.625 67.5 75.486 67.5Z" fill="#00D639"/>
    <path d="M106.669 46.5906C98.8094 46.5906 92.3547 40.4156 92.3547 32.6984C92.3547 24.9797 98.6001 18.8062 106.317 18.8062C114.106 18.8062 120 24.2094 120 31.0859C120 33.7516 118.106 35.3656 115.019 35.3656H106.95C105.336 35.3656 104.144 34.2437 104.144 32.7687C104.144 31.3656 105.336 30.2422 106.95 30.2422H112.984C113.545 30.2422 113.967 29.9609 113.967 29.4C113.967 27.3656 111.37 24.2078 106.53 24.2078C102.039 24.2078 98.3907 28.0672 98.3907 32.6984C98.3907 37.4 102.109 41.1187 106.741 41.1187C112.073 41.1187 113.828 37.9609 116.003 37.9609C117.828 37.9609 118.809 39.1531 118.809 40.4875C118.809 41.75 117.967 42.8734 115.863 44.2062C113.755 45.5375 110.598 46.5906 106.669 46.5906Z" fill="#00D639"/>
</svg>